<svg xmlns="http://www.w3.org/2000/svg" version="1.1" xmlns:xlink="http://www.w3.org/1999/xlink" xmlns:svgjs="http://svgjs.dev/svgjs" width="100%" height="100%" viewBox="0 0 1000 600"><rect width="1000" height="600" x="0" y="0" fill="#9ac8cd"/><g><rect width="333.3333333333333" height="333.3333333333333" rx="13.333333333333334" ry="13.333333333333334" y="321.64219304153835" fill="#e1f7f5" transform="matrix(0.4174738007023596,0,0,0.4174738007023596,0,96.1438287670738)" x="299.41983032226557"/><path d="M376.41758685902533 501.14956939175477L424.5845748340156 501.14956939175477Q403.22181029280654 439.10542170131606 401.00491963286976 431.4182813610158L401.00491963286976 431.4182813610158Q401.00491963286976 431.4182813610158 376.41758685902533 501.14956939175477L376.41758685902533 501.14956939175477ZM465.7841921634902 563.308880233359L447.761159006082 563.308880233359L430.2563600289188 515.8328711653621L370.5442661495824 515.8328711653621L352.40606984100873 563.308880233359L334.61336298593164 563.308880233359L392.0797754175398 413.3088758402334L410.0164362115738 413.3088758402334L465.7841921634902 563.308880233359ZM508.19302258020303 501.14956939175477L556.3600105551932 501.14956939175477Q534.9972460139843 439.10542170131606 532.7803553540475 431.4182813610158L532.7803553540475 431.4182813610158Q532.7803553540475 431.4182813610158 508.19302258020303 501.14956939175477L508.19302258020303 501.14956939175477ZM597.5596278846679 563.308880233359L579.5365947272599 563.308880233359L562.0317957500965 515.8328711653621L502.31970187076007 515.8328711653621L484.2102963499778 563.308880233359L466.3887987071093 563.308880233359L523.884001926509 413.3088758402334L541.7918719327515 413.3088758402334L597.5596278846679 563.308880233359Z " fill="#0e46a3" transform="matrix(0.4174738007023596,0,0,0.4174738007023596,0,96.1438287670738)"/><path d="M755.4930568559851 502.5164036969909L800.8974349854499 502.5164036969909Q780.7599283673609 444.0307881148051 778.6701871145403 436.7845424719078L778.6701871145403 436.7845424719078Q778.6701871145403 436.7845424719078 755.4930568559851 502.5164036969909L755.4930568559851 502.5164036969909ZM839.7340548917646 561.1105772663362L822.7447299013013 561.1105772663362L806.2439158530558 516.3575470598284L749.9565995108501 516.3575470598284L732.8587165332273 561.1105772663362L716.0865075170831 561.1105772663362L770.2569431096784 419.71379899107495L787.164849609772 419.71379899107495L839.7340548917646 561.1105772663362ZM881.8002749160745 563.0103420416276L881.8002749160745 563.0103420416276Q866.5478777201635 563.0103420416276 860.1972354713321 554.8142140110847Q853.8465932225008 546.6180859805417 853.8465932225008 526.2906028849235L853.8465932225008 526.2906028849235L853.8465932225008 415.80571145333255L869.6960593477892 414.85582906568686L869.6960593477892 519.9942396296719Q869.6960593477892 526.4805793624527 869.8317568317385 530.388666900195Q869.967454315688 534.2967544379374 870.5373837482754 538.0691444917303Q871.1073131808628 541.8415345455232 872.0843350652984 543.7412993208147Q873.0342174529441 545.6410640961061 874.8525637378659 547.215154909919Q876.6437705259979 548.7892457237319 879.1948832242463 549.3320356595294Q881.7188564257049 549.8476860985371 885.4369674859181 549.8476860985371L885.4369674859181 549.8476860985371Q888.4765911263843 549.8476860985371 897.4597645638338 548.7078272333622L897.4597645638338 548.7078272333622L898.30108896432 561.4091117310248Q888.4765911263843 563.0103420416276 881.8002749160745 563.0103420416276ZM936.1064079926192 563.0103420416276L936.1064079926192 563.0103420416276Q920.8268712999183 563.0103420416276 914.4762290510869 554.8142140110847Q908.1527262990454 546.6180859805417 908.1527262990454 526.2906028849235L908.1527262990454 526.2906028849235L908.1527262990454 415.80571145333255L923.975052927544 414.85582906568686L923.975052927544 519.9942396296719Q923.975052927544 526.4805793624527 924.1107504114934 530.388666900195Q924.2735873922326 534.2967544379374 924.8435168248201 538.0691444917303Q925.4134462574075 541.8415345455232 926.3633286450532 543.7412993208147Q927.3132110326989 545.6410640961061 929.1315573176207 547.215154909919Q930.9499036025426 548.7892457237319 933.4738768040011 549.3320356595294Q935.9978500054597 549.8476860985371 939.7159610656729 549.8476860985371L939.7159610656729 549.8476860985371Q942.782724202929 549.8476860985371 951.7387581435886 548.7078272333622L951.7387581435886 548.7078272333622L952.6072220408647 561.4091117310248Q942.782724202929 563.0103420416276 936.1064079926192 563.0103420416276ZM992.4751428251946 550.4176155311245L992.4751428251946 550.4176155311245Q1003.8465919801532 550.4176155311245 1012.4769519593342 544.1755312694527Q1021.1073119385152 537.9334470077808 1023.5770061463941 527.3219037629389L1023.5770061463941 527.3219037629389L1023.5770061463941 509.68123084951856Q1023.1156347009661 509.68123084951856 1017.8234328269401 510.1697417917363Q1012.5312309529139 510.63111323716424 1010.9028611455213 510.73967122432373L1010.9028611455213 510.73967122432373Q990.1954250948448 512.5580175092455 982.0264365610918 517.4974059250032Q973.8845875241285 522.4639338375507 973.8845875241285 533.4282905406612L973.8845875241285 533.4282905406612Q973.8845875241285 541.8415345455232 978.8511154366761 546.1295750383239Q983.7905038524337 550.4176155311245 992.4751428251946 550.4176155311245ZM1039.5350302588422 561.1105772663362L1027.105140729078 561.1105772663362Q1025.6938868960046 555.0041904886139 1024.3640515533007 547.9479213232457L1024.3640515533007 547.9479213232457Q1015.6794125805397 556.6325602960064 1008.0260744857943 559.9707184011613Q1000.3998758878388 563.3088765063162 990.0868671076854 563.3088765063162L990.0868671076854 563.3088765063162Q975.4043993443617 563.3088765063162 966.475504900492 555.628398914781Q957.5737499534122 547.9479213232457 957.5737499534122 533.5368485278208L957.5737499534122 533.5368485278208Q957.5737499534122 517.4974059250032 969.7322445152773 509.78978883667804Q981.8907390771424 502.0550322515629 1004.7964743677989 500.15526747627155L1004.7964743677989 500.15526747627155Q1007.9446559954247 499.8567330115829 1014.2952982442561 499.34108257257526Q1020.6188009962974 498.79829263677766 1023.7669826239232 498.5268976688789L1023.7669826239232 498.5268976688789L1023.7669826239232 489.2723292635307Q1023.7669826239232 478.1994145732607 1018.6376177306364 472.8529337056549Q1013.4811133405598 467.50645283804903 1002.4081986502897 467.50645283804903L1002.4081986502897 467.50645283804903Q986.9386854800596 467.50645283804903 971.1977773419306 475.1326514360046L971.1977773419306 475.1326514360046Q970.7364058965028 473.99279257082975 968.7280831340519 468.5106142192745Q966.7197603716008 463.0284358677193 966.6383418812313 462.8384593901901L966.6383418812313 462.8384593901901Q973.5860530594399 458.93037185244776 983.1934349230565 456.59637512851833Q992.7736772898833 454.235238907799 1002.6795936181885 454.235238907799L1002.6795936181885 454.235238907799Q1022.2471708036901 454.235238907799 1030.877530782871 462.7841803966104Q1039.5350302588422 471.33312188542175 1039.5350302588422 491.8505814585691L1039.5350302588422 491.8505814585691L1039.5350302588422 561.1105772663362ZM1083.1210621033852 561.1105772663362L1067.000201010198 561.1105772663362L1067.000201010198 456.4335381477791L1080.3528334308176 456.4335381477791L1082.3611561932685 471.4145403757914Q1088.5761009581506 463.7069232874662 1097.8578088602885 458.98465084602753Q1107.1666562592163 454.235238907799 1117.9410364847977 454.235238907799L1117.9410364847977 454.235238907799Q1136.0702203404362 454.235238907799 1144.754859313197 464.41255020400297Q1153.4394982859576 474.56272200341715 1153.4394982859576 495.6501110091519L1153.4394982859576 495.6501110091519L1153.4394982859576 561.1105772663362L1137.5086136702994 561.1105772663362Q1137.5086136702994 498.14694471382063 1137.42719517993 493.64178824670097L1137.42719517993 493.64178824670097Q1137.0201027280818 480.2891558260813 1132.026435318744 474.10135055798924Q1127.0056284126167 467.8864057931073 1115.2813657993897 467.8864057931073L1115.2813657993897 467.8864057931073Q1102.9600342567855 467.8864057931073 1094.7639062262424 473.8028160933006Q1086.5677781956997 479.71922639349384 1084.0709444910308 489.1637712763712L1084.0709444910308 489.1637712763712Q1083.1210621033852 495.56869251878226 1083.1210621033852 503.8733785364847L1083.1210621033852 503.8733785364847L1083.1210621033852 561.1105772663362ZM1178.4349748294344 419.3338460360166L1193.3345585670772 419.3338460360166L1191.407654294996 468.0763822706365L1180.4432975918853 468.0763822706365L1178.4349748294344 419.3338460360166ZM1251.5216396845744 563.3088765063162L1251.5216396845744 563.3088765063162Q1240.8286779493628 563.3088765063162 1231.8183650151236 561.0020192791767Q1222.808052080884 558.722301548827 1217.1901762453795 555.1127484757733L1217.1901762453795 555.1127484757733L1219.1713595110405 541.6515580679941Q1235.1293836234886 550.1462205632257 1250.490338806559 550.1462205632257L1250.490338806559 550.1462205632257Q1273.748887555484 550.1462205632257 1274.427374975231 533.7268250053498L1274.427374975231 533.7268250053498Q1274.427374975231 526.7519743303515 1269.4608470626836 522.7624683022394Q1264.494319150136 518.7458227773376 1250.0018278643415 513.77929486479L1250.0018278643415 513.77929486479L1242.077094801697 511.01106619222253Q1228.3445094260192 506.4516307315231 1222.4823781194054 499.6667565340538Q1216.6202468127922 492.8818823365844 1216.5116888256325 482.78598953075004L1216.5116888256325 482.78598953075004Q1216.5116888256325 470.4646579881457 1226.390465657148 462.34994844797234Q1236.2692424886632 454.235238907799 1253.448543956656 454.235238907799L1253.448543956656 454.235238907799Q1271.1706353604459 454.235238907799 1285.7716846333997 461.12867109242785L1285.7716846333997 461.12867109242785L1281.1036911855408 473.34144464787266Q1266.3126654350576 467.23505787015023 1253.448543956656 467.23505787015023L1253.448543956656 467.23505787015023Q1243.406930144401 467.23505787015023 1237.7347753153167 471.19742440147235Q1232.0626204862324 475.1326514360046 1232.0626204862324 482.2974785885322L1232.0626204862324 482.2974785885322Q1232.0626204862324 488.40386536625465 1236.160684501504 491.6606049810399Q1240.2587485167755 494.89020509903537 1252.5800800593797 499.0968271014663L1252.5800800593797 499.0968271014663Q1255.7282616870052 500.2366859666412 1260.5048131220237 501.7564977868743L1260.5048131220237 501.7564977868743Q1276.3271397505223 506.913002176951 1282.9220374704628 513.9421318455293Q1289.489795693613 520.9441220173177 1289.489795693613 532.8583611080738L1289.489795693613 532.8583611080738Q1289.299819216084 547.3779918906582 1279.09536842309 555.3298644500924Q1268.8909176300958 563.3088765063162 1251.5216396845744 563.3088765063162ZM1377.1775098217067 500.2366859666412L1377.1775098217067 561.1105772663362L1360.296742818403 561.1105772663362L1360.296742818403 418.3839636483709L1406.298189877245 418.3839636483709Q1416.7740356381378 418.3839636483709 1425.2686981333695 420.55512339156115Q1433.7633606286013 422.7534226315412 1440.3582583485413 427.25857909866085Q1446.9260165716914 431.7365960689906 1450.5627091415354 439.28137617657654Q1454.172262214589 446.7990167873726 1454.172262214589 456.81349110283736L1454.172262214589 456.81349110283736Q1454.172262214589 465.1181771205398 1452.6524503943556 471.65879584690026Q1451.1326385741227 478.1994145732607 1447.4145275139094 483.92584839592485Q1443.6964164536962 489.652282218589 1437.6714481663435 493.42467227238194Q1431.6736193757806 497.1970623261749 1422.2562139896932 499.34108257257526Q1412.8659481003956 501.4851028189755 1400.4631980674217 501.4851028189755L1400.4631980674217 501.4851028189755Q1390.638700229486 501.4851028189755 1377.1775098217067 500.2366859666412L1377.1775098217067 500.2366859666412ZM1402.0915678748142 486.8840535460215L1402.0915678748142 486.8840535460215Q1411.427554770532 486.8840535460215 1418.1310104776317 485.0657072610997Q1424.8073266879414 483.2473609761779 1428.3626007674156 480.58769029076996Q1431.9450143436793 477.9008801085721 1434.00761609971 473.61283961577146Q1436.0430783589509 469.32479912297083 1436.5315893011684 465.742385546707Q1437.0201002433864 462.15997197044317 1437.0201002433864 457.11202556752596L1437.0201002433864 457.11202556752596Q1437.0201002433864 444.9806705024508 1428.8511117096332 439.28137617657654Q1420.6821231758804 433.5549423539124 1406.6781428323034 433.5549423539124L1406.6781428323034 433.5549423539124L1377.1775098217067 433.5549423539124L1377.1775098217067 486.69407706849233Q1395.6052281420334 486.8840535460215 1402.0915678748142 486.8840535460215ZM1481.366037998046 509.0027434297716L1481.366037998046 509.0027434297716Q1481.366037998046 527.6204382276275 1489.616445022169 538.8290504018469Q1497.8939915430815 550.0376625760662 1513.71631817158 550.0376625760662L1513.71631817158 550.0376625760662Q1529.3758078193391 550.0376625760662 1537.3276803787735 538.8833293954266Q1545.3066924349973 527.728996214787 1545.3066924349973 508.81276695224244L1545.3066924349973 508.81276695224244Q1545.3066924349973 489.652282218589 1537.4362383659327 478.63364652189875Q1529.5657842968685 467.6150108252085 1513.4449232036814 467.6150108252085L1513.4449232036814 467.6150108252085Q1497.7854335559218 467.6150108252085 1489.5893055253791 478.87790199300764Q1481.366037998046 490.1136536640169 1481.366037998046 509.0027434297716ZM1561.8075064832428 508.7313484618728L1561.8075064832428 508.7313484618728Q1561.8075064832428 533.0483375856029 1548.8348270176812 548.1921767943545Q1535.86214755212 563.3088765063162 1512.9564122614634 563.3088765063162L1512.9564122614634 563.3088765063162Q1490.919140868083 563.3088765063162 1477.892182408942 548.0293398136153Q1464.8652239498006 532.7769426177042 1464.8652239498006 508.81276695224244L1464.8652239498006 508.81276695224244Q1464.8652239498006 484.38721984135276 1477.9464614025214 469.32479912297083Q1491.0005593584524 454.235238907799 1513.8248761587397 454.235238907799L1513.8248761587397 454.235238907799Q1536.2421005071783 454.235238907799 1549.0248034952106 469.3790781165506Q1561.8075064832428 484.4957778285123 1561.8075064832428 508.7313484618728ZM1631.257478768539 455.48365576013333L1631.257478768539 455.48365576013333Q1635.5726587581298 455.48365576013333 1639.1007933408137 456.0535851927208L1639.1007933408137 456.0535851927208L1638.5308639082264 470.76319245283435Q1634.1342654282657 470.0032865427178 1630.8775258134806 470.0032865427178L1630.8775258134806 470.0032865427178Q1617.524893392861 470.0032865427178 1609.1930678783688 479.28499444485584Q1600.8341028670866 488.59384184378376 1600.8341028670866 502.3264272194618L1600.8341028670866 502.3264272194618L1600.8341028670866 561.1105772663362L1584.9032182514284 561.1105772663362Q1584.7946602642687 464.73822416548154 1584.7946602642687 456.4335381477791L1584.7946602642687 456.4335381477791L1598.065874194519 456.4335381477791L1599.585686014752 475.2412094231641Q1605.0407248695174 466.36659397287417 1613.4268293775895 460.93869461489874Q1621.8129338856616 455.48365576013333 1631.257478768539 455.48365576013333ZM1688.9017699502388 563.0103420416276L1688.9017699502388 563.0103420416276Q1673.4322567800086 563.0103420416276 1666.9459170472278 555.4927014308316Q1660.459577314447 547.9479213232457 1660.0796243593886 531.1485728103115L1660.0796243593886 531.1485728103115L1660.0796243593886 468.2663587481656L1644.5286926987892 468.2663587481656L1645.2071801185357 457.7905129872729L1659.9982058690193 456.4335381477791L1665.4261052269949 432.49650197910717L1675.929090484677 432.1165490240489L1675.929090484677 456.4335381477791L1705.022631043426 456.4335381477791L1705.022631043426 468.2663587481656L1675.929090484677 468.2663587481656L1675.929090484677 528.2989256473744Q1675.929090484677 540.2131647381307 1679.5386435577311 545.0711346635187Q1683.1753361275746 549.9562440856967 1691.941393590705 549.9562440856967L1691.941393590705 549.9562440856967Q1695.0895752183305 549.9562440856967 1705.5925604760132 548.4092927686736L1705.5925604760132 548.4092927686736L1706.2710478957601 561.0020192791767Q1694.8995987408016 563.0103420416276 1688.9017699502388 563.0103420416276ZM1763.0468751801836 426.0101622463265L1763.0468751801836 426.0101622463265Q1753.1138193550887 426.0101622463265 1749.4499872884553 431.7365960689906Q1745.759015725032 437.46302989165474 1745.759015725032 451.575568222391L1745.759015725032 451.575568222391L1745.759015725032 456.4335381477791L1770.9444687460377 456.4335381477791L1770.9444687460377 468.2663587481656L1745.759015725032 468.2663587481656L1745.759015725032 561.1105772663362L1729.8281311093738 561.1105772663362L1729.8281311093738 468.2663587481656L1712.8388061189103 468.2663587481656L1714.1957809584042 457.7905129872729L1729.8281311093738 456.4335381477791L1729.8281311093738 451.76554469992016Q1730.0181075869027 431.5466195914615 1737.4271902105393 422.42774867006267Q1744.8091333373864 413.30887774866386 1761.3099473856314 413.30887774866386L1761.3099473856314 413.30887774866386Q1767.7148686280425 413.30887774866386 1776.9694370333905 414.7472710785274L1776.9694370333905 414.7472710785274L1775.9109966585856 427.25857909866085Q1767.416334163354 426.0101622463265 1763.0468751801836 426.0101622463265ZM1797.8668495615962 509.0027434297716L1797.8668495615962 509.0027434297716Q1797.8668495615962 527.6204382276275 1806.1172565857191 538.8290504018469Q1814.367663609842 550.0376625760662 1830.2171297351301 550.0376625760662L1830.2171297351301 550.0376625760662Q1845.8494798860997 550.0376625760662 1853.8284919423236 538.8833293954266Q1861.7803645017575 527.728996214787 1861.7803645017575 508.81276695224244L1861.7803645017575 508.81276695224244Q1861.7803645017575 489.652282218589 1853.9099104326933 478.63364652189875Q1846.0394563636287 467.6150108252085 1829.9185952704415 467.6150108252085L1829.9185952704415 467.6150108252085Q1814.2591056226825 467.6150108252085 1806.0629775921393 478.87790199300764Q1797.8668495615962 490.1136536640169 1797.8668495615962 509.0027434297716ZM1878.281178550003 508.7313484618728L1878.281178550003 508.7313484618728Q1878.281178550003 533.0483375856029 1865.3084990844418 548.1921767943545Q1852.3358196188801 563.3088765063162 1829.4300843282235 563.3088765063162L1829.4300843282235 563.3088765063162Q1807.3928129348433 563.3088765063162 1794.3658544757022 548.0293398136153Q1781.366035513351 532.7769426177042 1781.366035513351 508.81276695224244L1781.366035513351 508.81276695224244Q1781.366035513351 484.38721984135276 1794.420133469282 469.32479912297083Q1807.501370922003 454.235238907799 1830.2985482254999 454.235238907799L1830.2985482254999 454.235238907799Q1852.7157725739385 454.235238907799 1865.4984755619707 469.3790781165506Q1878.281178550003 484.4957778285123 1878.281178550003 508.7313484618728ZM1928.950619056704 563.0103420416276L1928.950619056704 563.0103420416276Q1913.6982218607932 563.0103420416276 1907.347579611962 554.8142140110847Q1900.9969373631307 546.6180859805417 1900.9969373631307 526.2906028849235L1900.9969373631307 526.2906028849235L1900.9969373631307 415.80571145333255L1916.8464034884191 414.85582906568686L1916.8464034884191 519.9942396296719Q1916.8464034884191 526.4805793624527 1916.9821009723682 530.388666900195Q1917.1177984563178 534.2967544379374 1917.687727888905 538.0691444917303Q1918.2576573214924 541.8415345455232 1919.234679205928 543.7412993208147Q1920.1845615935736 545.6410640961061 1922.0029078784955 547.215154909919Q1923.7941146666276 548.7892457237319 1926.318087868086 549.3320356595294Q1928.8692005663347 549.8476860985371 1932.587311626548 549.8476860985371L1932.587311626548 549.8476860985371Q1935.6269352670142 549.8476860985371 1944.6101087044635 548.7078272333622L1944.6101087044635 548.7078272333622L1945.4514331049495 561.4091117310248Q1935.6269352670142 563.0103420416276 1928.950619056704 563.0103420416276ZM1957.8541831379239 456.4335381477791L1973.8936257407413 456.4335381477791L1973.8936257407413 561.1105772663362L1957.8541831379239 561.1105772663362L1957.8541831379239 456.4335381477791ZM1957.8541831379239 418.3839636483709L1973.8936257407413 418.3839636483709L1973.8936257407413 437.2730534141256L1957.8541831379239 437.2730534141256L1957.8541831379239 418.3839636483709ZM2015.4984743196233 509.0027434297716L2015.4984743196233 509.0027434297716Q2015.4984743196233 527.6204382276275 2023.7488813437458 538.8290504018469Q2031.9992883678688 550.0376625760662 2047.8487544931572 550.0376625760662L2047.8487544931572 550.0376625760662Q2063.4811046441264 550.0376625760662 2071.46011670035 538.8833293954266Q2079.4119892597846 527.728996214787 2079.4119892597846 508.81276695224244L2079.4119892597846 508.81276695224244Q2079.4119892597846 489.652282218589 2071.5415351907204 478.63364652189875Q2063.6710811216553 467.6150108252085 2047.5502200284682 467.6150108252085L2047.5502200284682 467.6150108252085Q2031.917869877499 467.6150108252085 2023.6946023501664 478.87790199300764Q2015.4984743196233 490.1136536640169 2015.4984743196233 509.0027434297716ZM2095.93994280482 508.7313484618728L2095.93994280482 508.7313484618728Q2095.93994280482 533.0483375856029 2082.940123842469 548.1921767943545Q2069.967444376907 563.3088765063162 2047.0888485830405 563.3088765063162L2047.0888485830405 563.3088765063162Q2025.0244376928704 563.3088765063162 2012.0246187305193 548.0293398136153Q1998.9976602713778 532.7769426177042 1998.9976602713778 508.81276695224244L1998.9976602713778 508.81276695224244Q1998.9976602713778 484.38721984135276 2012.0517582273087 469.32479912297083Q2025.1329956800296 454.235238907799 2047.930172983527 454.235238907799L2047.930172983527 454.235238907799Q2070.347397331966 454.235238907799 2083.130100319998 469.3790781165506Q2095.93994280482 484.4957778285123 2095.93994280482 508.7313484618728Z " fill="#0e46a3" transform="matrix(0.4174738007023596,0,0,0.4174738007023596,0,96.1438287670738)"/></g></svg>